name Visual3d_SIMM_grf.mot
datacolumns 19
datarows 48
range 0.360000 0.830000
endheader
time	ground_force_vx	ground_force_vy	ground_force_vz	ground_force_px	ground_force_py	ground_force_pz	l_ground_force_vx	l_ground_force_vy	l_ground_force_vz	l_ground_force_px	l_ground_force_py	l_ground_force_pz	ground_torque_x	ground_torque_y	ground_torque_z	l_ground_torque_x	l_ground_torque_y	l_ground_torque_z
0.360000	-20.526062	126.845978	0.224201	-0.297255	-0.001977	-0.213943	0.000000	0.000000	0.000000	0.000000	0.000000	0.000000	0.000200	-0.216573	0.000483	0.000000	0.000000	0.000000
0.370000	-22.961895	141.300552	-1.874490	-0.295145	-0.002218	-0.212818	0.000000	0.000000	0.000000	0.000000	0.000000	0.000000	0.000231	-0.249921	0.000558	0.000000	0.000000	0.000000
0.380000	-25.098951	156.934723	-3.856149	-0.292916	-0.002185	-0.211436	0.000000	0.000000	0.000000	0.000000	0.000000	0.000000	0.000257	-0.278142	0.000621	0.000000	0.000000	0.000000
0.390000	-26.874195	173.949127	-5.494276	-0.290714	-0.001960	-0.209942	0.000000	0.000000	0.000000	0.000000	0.000000	0.000000	0.000273	-0.295128	0.000659	0.000000	0.000000	0.000000
0.400000	-28.156727	191.612213	-6.679253	-0.288629	-0.001630	-0.208491	0.000000	0.000000	0.000000	0.000000	0.000000	0.000000	0.000273	-0.295290	0.000659	0.000000	0.000000	0.000000
0.410000	-28.819611	208.742294	-7.368893	-0.286707	-0.001265	-0.207230	0.000000	0.000000	0.000000	0.000000	0.000000	0.000000	0.000257	-0.278142	0.000621	0.000000	0.000000	0.000000
0.420000	-28.771900	224.195221	-7.584757	-0.284961	-0.000906	-0.206258	0.000000	0.000000	0.000000	0.000000	0.000000	0.000000	0.000229	-0.247661	0.000553	0.000000	0.000000	0.000000
0.430000	-27.979019	237.081177	-7.435859	-0.283380	-0.000568	-0.205606	0.000000	0.000000	0.000000	0.000000	0.000000	0.000000	0.000192	-0.207741	0.000464	0.000000	0.000000	0.000000
0.440000	-26.492990	246.812378	-7.121981	-0.281927	-0.000254	-0.205223	0.000000	0.000000	0.000000	0.000000	0.000000	0.000000	0.000147	-0.159110	0.000355	0.000000	0.000000	0.000000
0.450000	-24.438541	253.144287	-6.874071	-0.280554	0.000033	-0.204990	0.000000	0.000000	0.000000	0.000000	0.000000	0.000000	0.000093	-0.100895	0.000225	0.000000	0.000000	0.000000
0.460000	-21.975861	256.150757	-6.856766	-0.279201	0.000290	-0.204768	0.000000	0.000000	0.000000	0.000000	0.000000	0.000000	0.000032	-0.034330	0.000077	0.000000	0.000000	0.000000
0.470000	-19.268349	256.147736	-7.120821	-0.277799	0.000512	-0.204446	0.000000	0.000000	0.000000	0.000000	0.000000	0.000000	-0.000034	0.036416	-0.000081	0.000000	0.000000	0.000000
0.480000	-16.462547	253.644257	-7.622747	-0.276274	0.000697	-0.203960	0.000000	0.000000	0.000000	0.000000	0.000000	0.000000	-0.000100	0.107655	-0.000240	0.000000	0.000000	0.000000
0.490000	-13.676719	249.281891	-8.251904	-0.274561	0.000847	-0.203292	0.000000	0.000000	0.000000	0.000000	0.000000	0.000000	-0.000165	0.177999	-0.000397	0.000000	0.000000	0.000000
0.500000	-11.000812	243.746323	-8.865865	-0.272597	0.000962	-0.202460	0.000000	0.000000	0.000000	0.000000	0.000000	0.000000	-0.000230	0.248300	-0.000554	0.000000	0.000000	0.000000
0.510000	-8.506094	237.679596	-9.338542	-0.270312	0.001046	-0.201500	0.000000	0.000000	0.000000	0.000000	0.000000	0.000000	-0.000297	0.321169	-0.000717	0.000000	0.000000	0.000000
0.520000	-6.246546	231.617523	-9.597367	-0.267630	0.001102	-0.200446	0.000000	0.000000	0.000000	0.000000	0.000000	0.000000	-0.000371	0.400589	-0.000894	0.000000	0.000000	0.000000
0.530000	-4.252614	225.971283	-9.628407	-0.264480	0.001133	-0.199323	0.000000	0.000000	0.000000	0.000000	0.000000	0.000000	-0.000453	0.490001	-0.001094	0.000000	0.000000	0.000000
0.540000	-2.527866	221.024033	-9.461360	-0.260811	0.001141	-0.198149	0.000000	0.000000	0.000000	0.000000	0.000000	0.000000	-0.000547	0.591888	-0.001321	0.000000	0.000000	0.000000
0.550000	-1.062233	216.930908	-9.147215	-0.256602	0.001130	-0.196935	0.000000	0.000000	0.000000	0.000000	0.000000	0.000000	-0.000654	0.706673	-0.001577	0.000000	0.000000	0.000000
0.560000	0.158616	213.749054	-8.740963	-0.251854	0.001107	-0.195692	0.000000	0.000000	0.000000	0.000000	0.000000	0.000000	-0.000771	0.833195	-0.001860	0.000000	0.000000	0.000000
0.570000	1.150493	211.485886	-8.291812	-0.246588	0.001080	-0.194426	0.000000	0.000000	0.000000	0.000000	0.000000	0.000000	-0.000897	0.969278	-0.002163	0.000000	0.000000	0.000000
0.580000	1.936032	210.138168	-7.844021	-0.240847	0.001051	-0.193141	0.000000	0.000000	0.000000	0.000000	0.000000	0.000000	-0.001029	1.112080	-0.002482	0.000000	0.000000	0.000000
0.590000	2.548833	209.712601	-7.436475	-0.234716	0.001020	-0.191841	0.000000	0.000000	0.000000	0.000000	0.000000	0.000000	-0.001164	1.258222	-0.002808	0.000000	0.000000	0.000000
0.600000	3.038157	210.213333	-7.099357	-0.228317	0.000985	-0.190549	0.000000	0.000000	0.000000	0.000000	0.000000	0.000000	-0.001299	1.404892	-0.003136	0.000000	0.000000	0.000000
0.610000	3.471900	211.637894	-6.846792	-0.221810	0.000943	-0.189313	0.000000	0.000000	0.000000	0.000000	0.000000	0.000000	-0.001433	1.549491	-0.003458	0.000000	0.000000	0.000000
0.620000	3.935317	213.997086	-6.669316	-0.215387	0.000893	-0.188194	0.000000	0.000000	0.000000	0.000000	0.000000	0.000000	-0.001563	1.689512	-0.003771	0.000000	0.000000	0.000000
0.630000	4.529767	217.320114	-6.532095	-0.209263	0.000841	-0.187249	0.000000	0.000000	0.000000	0.000000	0.000000	0.000000	-0.001687	1.823631	-0.004070	0.000000	0.000000	0.000000
0.640000	5.368127	221.638870	-6.383982	-0.203645	0.000796	-0.186532	0.000000	0.000000	0.000000	0.000000	0.000000	0.000000	-0.001805	1.951520	-0.004356	0.000000	0.000000	0.000000
0.650000	6.558939	226.956787	-6.166352	-0.198710	0.000760	-0.186064	0.000000	0.000000	0.000000	0.000000	0.000000	0.000000	-0.001918	2.073973	-0.004629	0.000000	0.000000	0.000000
0.660000	8.185850	233.201324	-5.820519	-0.194570	0.000729	-0.185837	0.000000	0.000000	0.000000	0.000000	0.000000	0.000000	-0.002028	2.192817	-0.004894	0.000000	0.000000	0.000000
0.670000	10.295094	240.204361	-5.276561	-0.191254	0.000696	-0.185811	0.000000	0.000000	0.000000	0.000000	0.000000	0.000000	-0.002140	2.313549	-0.005164	0.000000	0.000000	0.000000
0.680000	12.880754	247.693481	-4.479940	-0.188705	0.000654	-0.185938	0.000000	0.000000	0.000000	0.000000	0.000000	0.000000	-0.002261	2.444211	-0.005455	0.000000	0.000000	0.000000
0.690000	15.912269	255.305527	-3.512690	-0.186800	0.000597	-0.186159	0.000000	0.000000	0.000000	0.000000	0.000000	0.000000	-0.002389	2.583266	-0.005766	0.000000	0.000000	0.000000
0.700000	19.385181	262.601318	-2.554544	-0.185398	0.000517	-0.186429	0.000000	0.000000	0.000000	0.000000	0.000000	0.000000	-0.002514	2.717618	-0.006066	0.000000	0.000000	0.000000
0.710000	23.258621	269.057953	-1.808316	-0.184363	0.000411	-0.186721	0.000000	0.000000	0.000000	0.000000	0.000000	0.000000	-0.002616	2.828283	-0.006313	0.000000	0.000000	0.000000
0.720000	27.459864	274.058136	-1.421710	-0.183572	0.000281	-0.187027	0.000000	0.000000	0.000000	0.000000	0.000000	0.000000	-0.002679	2.896443	-0.006465	0.000000	0.000000	0.000000
0.730000	31.887566	276.938141	-1.439619	-0.182925	0.000132	-0.187356	0.000000	0.000000	0.000000	0.000000	0.000000	0.000000	-0.002690	2.908529	-0.006492	0.000000	0.000000	0.000000
0.740000	36.394455	277.063507	-1.809281	-0.182338	-0.000026	-0.187726	0.000000	0.000000	0.000000	0.000000	0.000000	0.000000	-0.002644	2.857931	-0.006379	0.000000	0.000000	0.000000
0.750000	40.791138	273.892120	-2.405329	-0.181750	-0.000183	-0.188155	0.000000	0.000000	0.000000	0.000000	0.000000	0.000000	-0.002539	2.745006	-0.006127	0.000000	0.000000	0.000000
0.760000	44.845470	267.004120	-3.070064	-0.181119	-0.000333	-0.188656	0.000000	0.000000	0.000000	0.000000	0.000000	0.000000	-0.002383	2.576524	-0.005751	0.000000	0.000000	0.000000
0.770000	48.286556	256.101288	-3.647144	-0.180436	-0.000472	-0.189236	0.000000	0.000000	0.000000	0.000000	0.000000	0.000000	-0.002188	2.364974	-0.005279	0.000000	0.000000	0.000000
0.780000	50.803223	240.993896	-4.007632	-0.179735	-0.000602	-0.189896	0.000000	0.000000	0.000000	0.000000	0.000000	0.000000	-0.001966	2.124951	-0.004743	0.000000	0.000000	0.000000
0.790000	52.048946	221.626999	-4.066002	-0.179119	-0.000726	-0.190636	-3.037731	39.733879	-3.144266	0.247552	-0.005816	-0.198305	-0.001727	1.867100	-0.004167	0.000295	-0.022588	-0.000435
0.800000	51.661247	198.164078	-3.791504	-0.178788	-0.000844	-0.191451	-8.111059	69.044205	-4.275205	0.256359	-0.005692	-0.199721	-0.001478	1.597371	-0.003565	0.000355	-0.027156	-0.000523
0.810000	49.318104	171.111710	-3.216867	-0.179061	-0.000949	-0.192361	-15.484251	104.876335	-5.068472	0.263530	-0.005583	-0.200143	-0.001219	1.317917	-0.002942	0.000470	-0.035934	-0.000693
0.820000	44.830597	141.469376	-2.444271	-0.180343	-0.001025	-0.193416	-24.919563	143.125137	-4.989008	0.270930	-0.005392	-0.200273	-0.000951	1.028454	-0.002295	0.000657	-0.050220	-0.000968
0.830000	38.289982	110.826637	-1.630425	-0.183042	-0.001044	-0.194694	-35.221100	179.874374	-3.590851	0.279617	-0.004988	-0.200348	-0.000678	0.732578	-0.001635	0.000797	-0.060995	-0.001176
